<svg width="320" height="73" viewBox="0 0 320 73" fill="none" xmlns="http://www.w3.org/2000/svg">
<path d="M128.39 36.6319L122.035 38.0848C121.242 34.6894 119.648 31.5296 117.385 28.8656C115.123 26.2016 112.256 24.1093 109.02 22.7608C105.785 21.4124 102.273 20.8464 98.7742 21.1094C95.2755 21.3724 91.8897 22.457 88.8952 24.2737L85.7566 26.1787L84.2303 22.8538C81.5973 17.1072 77.0848 12.4148 71.4265 9.53945C65.7684 6.66414 59.2973 5.77522 53.0661 7.01725C46.8348 8.25926 41.21 11.5591 37.1061 16.3802C33.0023 21.2013 30.6611 27.2598 30.4632 33.5706C32.3585 34.5792 34.0875 35.8696 35.5903 37.3972C36.1203 37.9332 36.515 38.5859 36.7423 39.3023C36.9087 39.789 36.9623 40.3066 36.899 40.8167C36.8359 41.3269 36.6574 41.8163 36.3772 42.2482L36.3464 42.2953C36.0324 42.765 35.6109 43.1545 35.1167 43.4319C34.6225 43.7096 34.069 43.8671 33.502 43.8918C32.958 43.9349 32.4109 43.861 31.8984 43.6747C31.3857 43.4887 30.9197 43.1948 30.5319 42.8133C29.1239 41.6444 27.5896 40.6342 25.9571 39.8015C24.349 38.9641 22.5578 38.5339 20.7422 38.5487C18.9656 38.532 17.2055 38.8883 15.5772 39.5943C13.9946 40.2736 12.5595 41.2506 11.3509 42.4719C10.1442 43.7091 9.17962 45.1585 8.50638 46.7459C7.82502 48.3769 7.47428 50.1253 7.47428 51.8912C7.47428 53.6571 7.82502 55.4056 8.50638 57.0365C9.16949 58.6157 10.13 60.0543 11.3365 61.2753C12.5467 62.4899 13.9818 63.4608 15.563 64.134C17.194 64.8402 18.956 65.1989 20.7351 65.1866C22.5952 65.2019 24.4372 64.8247 26.1396 64.0799C27.7792 63.3706 29.2536 62.3323 30.4703 61.0303C31.0423 60.3978 31.7975 59.9568 32.6321 59.7682C33.1208 59.6441 33.6312 59.6271 34.1273 59.7185C34.6234 59.8101 35.0935 60.0079 35.5049 60.298L35.6092 60.3734C36.0442 60.7226 36.3924 61.1667 36.6271 61.6709C36.8617 62.175 36.9765 62.7263 36.9627 63.2816C36.9833 64.2993 36.6188 65.2877 35.9411 66.0509C34.0367 68.1139 31.7228 69.7626 29.1452 70.8924C26.4935 72.0437 23.6288 72.6301 20.7351 72.6138C17.9511 72.6305 15.1936 72.076 12.6356 70.9843C10.1716 69.9458 7.93669 68.4368 6.05774 66.543C4.17557 64.6507 2.67506 62.4183 1.63704 59.966C0.55797 57.4121 0.00219727 54.6704 0.00219727 51.9006C0.00219727 49.1311 0.55797 46.3891 1.63704 43.8353C3.72722 38.8819 7.6649 34.9237 12.626 32.7888C15.184 31.6844 17.9461 31.123 20.7351 31.1404C21.852 31.139 22.9671 31.2256 24.0703 31.3994C24.7245 24.118 27.6936 17.2321 32.5481 11.7381C37.4024 6.24402 43.8906 2.42673 51.0733 0.838451C58.2562 -0.749822 65.7615 -0.0266905 72.5033 2.90321C79.2452 5.8331 84.8738 10.8178 88.5752 17.1362C92.4422 15.3879 96.652 14.515 100.9 14.5805C105.148 14.646 109.329 15.6483 113.14 17.5151C116.95 19.3817 120.296 22.0662 122.934 25.3743C125.573 28.6824 127.439 32.5316 128.397 36.6436L128.39 36.6319Z" fill="#5D55FF"/>
<path d="M40.7872 66.7293V32.7208C40.694 31.4461 41.0688 30.1813 41.842 29.16C42.1952 28.7606 42.6342 28.4451 43.1263 28.2365C43.6186 28.0278 44.1517 27.9313 44.6864 27.9546C45.2264 27.9334 45.7647 28.029 46.2639 28.2348C46.7631 28.4404 47.2116 28.7515 47.5783 29.1461C48.3835 30.1592 48.776 31.4357 48.6779 32.7229V66.7293C48.7765 68.0189 48.3783 69.2973 47.5641 70.3063C47.1985 70.6984 46.7524 71.0079 46.2559 71.2134C45.7593 71.419 45.224 71.516 44.6864 71.4979C44.1536 71.5144 43.6238 71.4122 43.1362 71.1986C42.6484 70.985 42.2151 70.6657 41.8681 70.2637C41.0856 69.2561 40.7014 67.9991 40.7872 66.7293Z" fill="#5D55FF"/>
<path d="M83.9347 55.5532C83.9575 57.755 83.5851 59.9431 82.8348 62.0149C82.1496 63.9141 81.0661 65.647 79.6562 67.099C78.251 68.527 76.5534 69.6384 74.6784 70.3581C72.602 71.1413 70.3949 71.5263 68.1741 71.4931C65.9706 71.5268 63.7811 71.1366 61.7267 70.344C59.8524 69.6057 58.1579 68.4801 56.7548 67.0418C55.3521 65.6032 54.2728 63.8851 53.5892 62.0008C52.8442 59.933 52.4766 57.7493 52.5036 55.5532C52.4777 53.3321 52.8501 51.1242 53.6034 49.0327C54.2828 47.145 55.3573 45.4218 56.756 43.9768C58.1612 42.5554 59.8591 41.4534 61.7338 40.746C65.9168 39.2283 70.5061 39.2332 74.6855 40.7601C76.5721 41.4798 78.279 42.5969 79.6891 44.0348C81.0993 45.4726 82.179 47.1971 82.8538 49.0892C83.5957 51.1636 83.9617 53.3521 83.9347 55.5532ZM76.0129 55.5532C76.172 52.8963 75.4199 50.264 73.8796 48.086C73.2102 47.2218 72.3429 46.5288 71.3497 46.0642C70.3567 45.5998 69.2664 45.3775 68.1694 45.4156C66.7196 45.3888 65.2965 45.8047 64.0923 46.6072C62.8531 47.4837 61.9068 48.7091 61.3759 50.1253C60.1094 53.6142 60.1044 57.4324 61.3617 60.9246C61.8926 62.333 62.8273 63.5559 64.0497 64.4427C65.2597 65.2695 66.7012 65.6962 68.1694 65.6625C69.268 65.7009 70.3601 65.477 71.3537 65.0095C72.3474 64.5421 73.2135 63.8446 73.8796 62.9757C75.4135 60.8116 76.1653 58.1956 76.0129 55.5532Z" fill="#5D55FF"/>
<path d="M108.493 67.0711V66.0656C107.625 67.177 106.626 68.1804 105.516 69.0539C104.495 69.8479 103.34 70.4555 102.105 70.8482C100.737 71.2603 99.3128 71.4589 97.8832 71.437C96.1017 71.4662 94.3398 71.0618 92.7514 70.2595C91.2957 69.5276 90.0781 68.402 89.2385 67.0122C88.1299 64.7862 87.6219 62.3122 87.7641 59.8323V44.2904C87.665 43.0258 88.0474 41.7702 88.8355 40.7722C89.1961 40.3846 89.6372 40.0797 90.1286 39.8788C90.6199 39.6777 91.1492 39.5859 91.68 39.609C92.219 39.5875 92.7561 39.6817 93.2551 39.8849C93.754 40.0879 94.2032 40.3955 94.5718 40.7864C95.3735 41.773 95.7667 43.0261 95.6717 44.2904V56.8417C95.6454 58.3817 95.8044 59.9194 96.1457 61.4218C96.383 62.5364 96.9628 63.5501 97.805 64.323C98.7202 65.0622 99.8798 65.4356 101.057 65.3709C102.402 65.3669 103.713 64.9562 104.817 64.1935C105.96 63.4482 106.856 62.3831 107.391 61.1322C107.976 58.7453 108.2 56.2847 108.054 53.8322V44.2974C107.959 43.0331 108.353 41.7801 109.154 40.7934C109.518 40.4044 109.963 40.0978 110.457 39.8946C110.951 39.6914 111.483 39.5965 112.018 39.616C112.547 39.5944 113.074 39.6871 113.563 39.888C114.052 40.0889 114.491 40.3931 114.85 40.7793C115.638 41.7775 116.02 43.0329 115.922 44.2974V67.0146C116.015 68.2228 115.648 69.4217 114.895 70.3749C114.551 70.7326 114.137 71.0166 113.678 71.2092C113.219 71.4019 112.725 71.4991 112.227 71.4953C111.728 71.4913 111.236 71.3861 110.78 71.1862C110.325 70.9862 109.915 70.6956 109.576 70.3325C108.813 69.4205 108.426 68.2553 108.493 67.0711Z" fill="#5D55FF"/>
<path d="M143.162 67.012V66.2373C142.226 67.3278 141.175 68.3147 140.026 69.1808C139.008 69.9306 137.876 70.5127 136.672 70.9046C135.396 71.308 134.064 71.5067 132.725 71.4933C130.906 71.5091 129.109 71.101 127.477 70.3017C125.847 69.4902 124.42 68.3267 123.301 66.8966C122.085 65.3486 121.178 63.5848 120.627 61.6995C120.004 59.602 119.698 57.4245 119.717 55.2378C119.463 51.106 120.75 47.0263 123.331 43.7768C124.508 42.4303 125.973 41.3624 127.619 40.6517C129.265 39.9413 131.05 39.6057 132.844 39.67C134.826 39.6085 136.796 40.0067 138.597 40.8333C140.326 41.7382 141.874 42.9498 143.164 44.4079V32.8339C143.074 31.5451 143.415 30.2626 144.134 29.1862C144.461 28.7763 144.883 28.4504 145.363 28.2356C145.844 28.0208 146.369 27.9238 146.895 27.9523C147.412 27.9217 147.929 28.0081 148.407 28.2047C148.886 28.4014 149.313 28.703 149.657 29.0873C150.368 30.054 150.711 31.2397 150.624 32.4336V67.012C150.717 68.2226 150.345 69.4231 149.583 70.3724C149.243 70.7404 148.827 71.0313 148.363 71.2248C147.899 71.4182 147.398 71.5098 146.895 71.4933C146.391 71.506 145.89 71.4083 145.428 71.2072C144.966 71.0063 144.554 70.7068 144.221 70.33C143.461 69.3956 143.083 68.2111 143.162 67.012ZM127.638 55.4945C127.588 57.3532 127.928 59.2017 128.636 60.9224C129.196 62.2877 130.145 63.4607 131.367 64.2969C132.489 65.0436 133.81 65.439 135.159 65.4319C136.502 65.4423 137.818 65.0688 138.952 64.3558C140.174 63.549 141.128 62.4022 141.697 61.059C142.434 59.3006 142.784 57.4057 142.723 55.5016C142.771 53.6544 142.421 51.8184 141.697 50.1161C141.111 48.7338 140.15 47.5403 138.921 46.6686C137.799 45.8882 136.461 45.4721 135.091 45.477C133.701 45.4596 132.343 45.8872 131.218 46.6968C130.018 47.5912 129.101 48.8068 128.572 50.2008C127.92 51.8897 127.605 53.6886 127.645 55.4969L127.638 55.4945Z" fill="#5D55FF"/>
<path d="M160.853 40.2143V28.7627H156.856V71.0603H160.853V43.6547H167.184V40.2213L160.853 40.2143Z" fill="#FF8662"/>
<path d="M176.038 40.2139H172.042V71.0599H176.038V40.2139Z" fill="#FF8662"/>
<path d="M213.393 46.6218L210.226 48.5787C208.947 46.834 207.256 45.4276 205.303 44.4834C203.349 43.5388 201.192 43.0855 199.021 43.1625C197.287 43.1093 195.559 43.4027 193.941 44.0251C192.323 44.6477 190.847 45.5868 189.601 46.7866C188.394 47.9146 187.436 49.2804 186.791 50.7969C186.145 52.3134 185.825 53.9472 185.851 55.5937C185.847 57.8233 186.442 60.0137 187.577 61.9377C188.693 63.8853 190.335 65.4843 192.318 66.5531C195.276 68.104 198.688 68.5764 201.961 67.8881C205.234 67.2 208.161 65.3943 210.233 62.7854L213.4 64.8553C211.91 67.0799 209.846 68.8646 207.422 70.0218C204.754 71.2816 201.828 71.9097 198.874 71.8562C196.629 71.9273 194.392 71.5529 192.295 70.7549C190.198 69.9566 188.282 68.7507 186.66 67.2078C185.1 65.7659 183.862 64.0149 183.026 62.0676C182.19 60.1207 181.775 58.0211 181.807 55.9046C181.791 52.9777 182.575 50.1013 184.076 47.5826C185.558 45.0509 187.717 42.9758 190.312 41.5871C193.038 40.1307 196.092 39.3891 199.187 39.4325C201.209 39.4289 203.218 39.7468 205.139 40.3744C206.885 40.9146 208.528 41.7381 210.003 42.8117C211.37 43.8525 212.521 45.1465 213.393 46.6218Z" fill="#FF8662"/>
<path d="M222.837 40.2139H218.84V71.0599H222.837V40.2139Z" fill="#FF8662"/>
<path d="M260.987 40.214V71.0624H257.048V65.7616C255.521 67.6662 253.599 69.2225 251.411 70.3253C248.436 71.7382 245.089 72.1875 241.844 71.6099C238.597 71.0325 235.615 69.4571 233.319 67.1062C231.8 65.5904 230.604 63.7861 229.803 61.8013C229.001 59.8164 228.61 57.6916 228.654 55.5534C228.62 53.4359 229.02 51.3338 229.83 49.3745C230.639 47.4153 231.84 45.6398 233.361 44.156C234.82 42.6338 236.579 41.4274 238.528 40.6126C240.479 39.7976 242.576 39.3919 244.691 39.4204C247.097 39.3867 249.472 39.9415 251.61 41.0358C253.779 42.2064 255.642 43.8673 257.045 45.8844V40.214H260.987ZM245.018 43.2494C242.847 43.2329 240.709 43.8009 238.834 44.8928C236.96 45.9847 235.417 47.5601 234.371 49.452C233.276 51.3484 232.701 53.4971 232.703 55.6836C232.706 57.8698 233.286 60.0175 234.385 61.9115C235.445 63.8302 237.005 65.4296 238.902 66.5411C240.744 67.6295 242.849 68.1991 244.99 68.1895C247.17 68.1892 249.315 67.6208 251.205 66.5411C253.101 65.5075 254.665 63.9675 255.723 62.0951C256.794 60.162 257.339 57.9852 257.304 55.7795C257.349 54.1268 257.057 52.4824 256.446 50.9447C255.834 49.407 254.917 48.0078 253.748 46.8311C252.622 45.6671 251.264 44.7477 249.763 44.1312C248.261 43.5147 246.646 43.2145 245.02 43.2494H245.018Z" fill="#FF8662"/>
<path d="M267.264 40.2141H271.26V45.7433C272.664 43.7987 274.475 42.1783 276.568 40.9936C278.511 39.9445 280.692 39.4031 282.904 39.4206C285.094 39.3831 287.246 39.9956 289.083 41.1796C290.859 42.3246 292.245 43.9739 293.063 45.9129C294.073 48.8957 294.509 52.0409 294.348 55.1839V71.0602H290.351V56.3448C290.439 53.964 290.292 51.5805 289.908 49.2285C289.588 47.4305 288.647 45.8001 287.244 44.62C285.76 43.5364 283.947 42.991 282.107 43.0753C279.723 43.0633 277.416 43.9098 275.612 45.4584C273.747 46.9666 272.417 49.0302 271.82 51.3455C271.341 54.1164 271.151 56.9288 271.251 59.7381V71.0413H267.254L267.264 40.2141Z" fill="#FF8662"/>
<path d="M317.976 43.5887L315.409 46.2262C313.809 44.4198 311.559 43.3102 309.144 43.1366C307.909 43.1142 306.712 43.5722 305.811 44.4129C305.38 44.781 305.031 45.2376 304.792 45.7512C304.552 46.2648 304.427 46.8236 304.424 47.3894C304.446 48.4494 304.853 49.4662 305.567 50.2529C306.956 51.6213 308.584 52.7267 310.372 53.5144C312.685 54.5465 314.752 56.0538 316.435 57.9368C317.473 59.3417 318.026 61.0428 318.009 62.7854C318.03 63.9842 317.803 65.1746 317.34 66.2818C316.878 67.3893 316.191 68.3899 315.321 69.2211C314.439 70.0889 313.389 70.7699 312.235 71.223C311.083 71.6758 309.848 71.8913 308.606 71.8562C306.83 71.8602 305.074 71.4634 303.474 70.6953C301.893 69.957 300.506 68.8592 299.43 67.4903L301.94 64.6645C302.706 65.6715 303.685 66.5001 304.806 67.0926C305.929 67.6853 307.167 68.0275 308.435 68.0955C309.947 68.1302 311.415 67.5815 312.526 66.5649C313.055 66.1224 313.479 65.5709 313.771 64.9492C314.062 64.3276 314.214 63.6503 314.214 62.9643C314.223 61.8531 313.828 60.776 313.1 59.9313C311.623 58.5584 309.921 57.4437 308.068 56.6345C305.866 55.6599 303.91 54.2067 302.348 52.3817C301.338 50.9874 300.807 49.3075 300.831 47.5896C300.802 46.5026 301.001 45.4215 301.416 44.4157C301.833 43.41 302.457 42.5017 303.246 41.7496C304.057 40.9774 305.015 40.3741 306.062 39.975C307.11 39.5759 308.229 39.3889 309.35 39.4254C312.664 39.6342 315.762 41.1298 317.976 43.5887Z" fill="#FF8662"/>
<path d="M222.837 28.7607H218.84V36.6071H222.837V28.7607Z" fill="#FF8662"/>
<path d="M176.038 28.7607H172.042V36.6071H176.038V28.7607Z" fill="#FF8662"/>
</svg>
