<svg width="203" height="47" viewBox="0 0 203 47" fill="none" xmlns="http://www.w3.org/2000/svg">
<path d="M81.8489 23.5846L77.7976 24.5201C77.2917 22.334 76.2756 20.2996 74.8332 18.5844C73.3907 16.8692 71.563 15.5221 69.5004 14.6539C67.4377 13.7858 65.199 13.4213 62.9686 13.5907C60.7382 13.76 58.5797 14.4583 56.6707 15.628L54.6699 16.8545L53.6969 14.7138C52.0183 11.014 49.1416 7.99277 45.5345 6.14154C41.9274 4.29032 37.8021 3.718 33.8297 4.51766C29.8573 5.31732 26.2714 7.4419 23.6552 10.5459C21.039 13.6499 19.5465 17.5506 19.4203 21.6136C20.6286 22.263 21.7308 23.0938 22.6889 24.0774C23.0268 24.4224 23.2784 24.8427 23.4233 25.3039C23.5293 25.6173 23.5635 25.9505 23.5232 26.2789C23.483 26.6075 23.3692 26.9225 23.1906 27.2006L23.1709 27.2309C22.9707 27.5334 22.702 27.7841 22.3869 27.9627C22.0719 28.1415 21.719 28.2429 21.3576 28.2588C21.0108 28.2866 20.662 28.239 20.3353 28.119C20.0085 27.9993 19.7114 27.8101 19.4642 27.5644C18.5666 26.8118 17.5884 26.1614 16.5477 25.6253C15.5226 25.0862 14.3806 24.8092 13.2232 24.8187C12.0907 24.808 10.9686 25.0374 9.9305 25.4919C8.92162 25.9293 8.00675 26.5583 7.23625 27.3446C6.46699 28.1412 5.85207 29.0744 5.42288 30.0964C4.98851 31.1465 4.76491 32.2722 4.76491 33.4091C4.76491 34.5461 4.98851 35.6718 5.42288 36.7219C5.84562 37.7386 6.45796 38.6648 7.2271 39.4509C7.99856 40.2329 8.91349 40.858 9.92145 41.2915C10.9612 41.7462 12.0845 41.9771 13.2187 41.9692C14.4045 41.979 15.5788 41.7362 16.6641 41.2566C17.7093 40.8 18.6492 40.1315 19.4249 39.2932C19.7895 38.886 20.2709 38.602 20.803 38.4806C21.1146 38.4007 21.4399 38.3898 21.7562 38.4486C22.0725 38.5076 22.3721 38.6349 22.6345 38.8217L22.701 38.8702C22.9782 39.0951 23.2002 39.381 23.3498 39.7056C23.4994 40.0302 23.5726 40.3851 23.5638 40.7426C23.5769 41.3979 23.3445 42.0342 22.9125 42.5256C21.6985 43.8539 20.2233 44.9153 18.5802 45.6428C16.8897 46.384 15.0634 46.7615 13.2187 46.7511C11.4439 46.7618 9.68601 46.4048 8.05525 45.7019C6.48445 45.0333 5.0597 44.0618 3.86188 42.8425C2.66199 41.6241 1.70541 40.1868 1.04367 38.6079C0.35577 36.9637 0.00146484 35.1985 0.00146484 33.4152C0.00146484 31.6321 0.35577 29.8667 1.04367 28.2224C2.37617 25.0333 4.88644 22.4848 8.04916 21.1103C9.67988 20.3992 11.4407 20.0378 13.2187 20.049C13.9307 20.0481 14.6416 20.1039 15.3449 20.2158C15.7619 15.5277 17.6548 11.0944 20.7495 7.55709C23.8441 4.01983 27.9803 1.56212 32.5593 0.53953C37.1384 -0.483056 41.923 -0.0174786 46.2209 1.86889C50.5188 3.75526 54.1071 6.9646 56.4667 11.0326C58.932 9.907 61.6157 9.34499 64.3239 9.38717C67.0321 9.42935 69.6973 10.0747 72.1265 11.2765C74.5558 12.4784 76.6886 14.2067 78.3707 16.3366C80.0529 18.4665 81.2425 20.9447 81.8534 23.5922L81.8489 23.5846Z" fill="#5D55FF"/>
<path d="M26.0018 42.9619V21.066C25.9424 20.2453 26.1814 19.431 26.6743 18.7734C26.8994 18.5163 27.1793 18.3131 27.493 18.1788C27.8069 18.0445 28.1467 17.9823 28.4876 17.9973C28.8318 17.9837 29.175 18.0452 29.4933 18.1777C29.8115 18.3101 30.0974 18.5104 30.3312 18.7645C30.8445 19.4167 31.0947 20.2386 31.0322 21.0673V42.9619C31.095 43.7921 30.8412 44.6152 30.3221 45.2649C30.0891 45.5173 29.8047 45.7165 29.4881 45.8489C29.1715 45.9813 28.8303 46.0437 28.4876 46.0321C28.1479 46.0427 27.8102 45.9769 27.4993 45.8393C27.1884 45.7018 26.9121 45.4962 26.6909 45.2374C26.1921 44.5887 25.9471 43.7794 26.0018 42.9619Z" fill="#5D55FF"/>
<path d="M53.5084 35.7669C53.5229 37.1845 53.2855 38.5933 52.8073 39.9271C52.3704 41.1499 51.6797 42.2656 50.7809 43.2005C49.8851 44.1198 48.8028 44.8355 47.6075 45.2988C46.2838 45.8031 44.8768 46.0509 43.4611 46.0296C42.0563 46.0512 40.6605 45.8 39.3508 45.2897C38.156 44.8144 37.0757 44.0897 36.1813 43.1636C35.287 42.2374 34.599 41.1313 34.1632 39.918C33.6882 38.5867 33.4539 37.1808 33.4711 35.7669C33.4546 34.3369 33.692 32.9153 34.1723 31.5687C34.6053 30.3534 35.2903 29.2439 36.182 28.3136C37.0778 27.3985 38.1602 26.6889 39.3554 26.2335C42.022 25.2563 44.9477 25.2595 47.6121 26.2426C48.8148 26.7059 49.9029 27.4251 50.8019 28.3509C51.7008 29.2766 52.3892 30.3869 52.8194 31.6051C53.2923 32.9407 53.5257 34.3498 53.5084 35.7669ZM48.4583 35.7669C48.5597 34.0562 48.0802 32.3615 47.0983 30.9592C46.6716 30.4028 46.1186 29.9566 45.4855 29.6575C44.8525 29.3585 44.1574 29.2154 43.458 29.2399C42.5338 29.2227 41.6266 29.4904 40.8589 30.0071C40.0689 30.5714 39.4657 31.3604 39.1272 32.2722C38.3198 34.5185 38.3166 36.9768 39.1181 39.2252C39.4566 40.132 40.0524 40.9193 40.8317 41.4903C41.6031 42.0226 42.5221 42.2973 43.458 42.2756C44.1584 42.3003 44.8546 42.1562 45.4881 41.8552C46.1215 41.5543 46.6737 41.1052 47.0983 40.5457C48.0761 39.1524 48.5555 37.4681 48.4583 35.7669Z" fill="#5D55FF"/>
<path d="M69.1644 43.1824V42.535C68.6112 43.2506 67.9739 43.8966 67.2664 44.4589C66.6155 44.9702 65.8792 45.3613 65.092 45.6142C64.2197 45.8796 63.312 46.0074 62.4007 45.9933C61.2649 46.0121 60.1417 45.7517 59.1291 45.2352C58.2011 44.764 57.4249 44.0393 56.8896 43.1445C56.1829 41.7113 55.8591 40.1184 55.9497 38.5218V28.5153C55.8866 27.7012 56.1303 26.8928 56.6328 26.2502C56.8626 26.0007 57.1438 25.8043 57.4571 25.675C57.7703 25.5455 58.1077 25.4864 58.4461 25.5013C58.7897 25.4875 59.1321 25.5481 59.4502 25.679C59.7683 25.8096 60.0547 26.0077 60.2896 26.2593C60.8007 26.8946 61.0514 27.7013 60.9908 28.5153V36.5963C60.974 37.5878 61.0754 38.5779 61.293 39.5452C61.4443 40.2628 61.8139 40.9154 62.3508 41.413C62.9342 41.889 63.6735 42.1294 64.424 42.0877C65.2811 42.0851 66.1171 41.8207 66.8207 41.3297C67.5498 40.8498 68.1208 40.1641 68.4617 39.3587C68.835 37.8219 68.9776 36.2377 68.8848 34.6587V28.5199C68.8242 27.7059 69.0749 26.8991 69.586 26.2639C69.8181 26.0134 70.1013 25.816 70.4163 25.6852C70.7313 25.5543 71.0707 25.4932 71.4114 25.5058C71.7485 25.4919 72.0846 25.5516 72.3965 25.6809C72.7083 25.8103 72.9883 26.0061 73.2172 26.2548C73.7193 26.8975 73.9631 27.7057 73.9002 28.5199V43.146C73.9594 43.9239 73.726 44.6958 73.2459 45.3095C73.0263 45.5398 72.7622 45.7226 72.4696 45.8467C72.1769 45.9707 71.8622 46.0333 71.5445 46.0309C71.2269 46.0283 70.9132 45.9605 70.6226 45.8318C70.332 45.7031 70.0709 45.516 69.855 45.2822C69.3687 44.695 69.1219 43.9448 69.1644 43.1824Z" fill="#5D55FF"/>
<path d="M91.2656 43.1441V42.6453C90.6692 43.3474 89.999 43.9828 89.2664 44.5405C88.6177 45.0232 87.8957 45.398 87.1282 45.6503C86.3149 45.91 85.4657 46.0379 84.6122 46.0293C83.4526 46.0395 82.3068 45.7767 81.2666 45.2621C80.2274 44.7397 79.3176 43.9906 78.604 43.0698C77.8294 42.0731 77.251 40.9375 76.8995 39.7237C76.5027 38.3733 76.3071 36.9713 76.3194 35.5634C76.1577 32.9033 76.9779 30.2766 78.6237 28.1845C79.3736 27.3175 80.3075 26.63 81.3568 26.1724C82.4063 25.715 83.5443 25.4989 84.6878 25.5403C85.9516 25.5008 87.2074 25.7571 88.3552 26.2893C89.4576 26.8719 90.4445 27.652 91.2671 28.5908V21.139C91.2094 20.3092 91.4267 19.4835 91.8852 18.7905C92.094 18.5266 92.3627 18.3167 92.6691 18.1785C92.9754 18.0402 93.3103 17.9777 93.6458 17.9961C93.9752 17.9764 94.3046 18.032 94.6096 18.1586C94.9145 18.2852 95.1868 18.4794 95.4061 18.7268C95.8594 19.3492 96.0779 20.1126 96.0227 20.8813V43.1441C96.082 43.9235 95.8449 44.6965 95.3592 45.3076C95.1422 45.5446 94.8769 45.7318 94.5811 45.8565C94.2854 45.9809 93.9663 46.0399 93.6458 46.0293C93.3242 46.0375 93.0049 45.9746 92.7104 45.8451C92.4159 45.7158 92.1531 45.5229 91.9411 45.2803C91.4565 44.6787 91.2154 43.9161 91.2656 43.1441ZM81.3694 35.7287C81.3373 36.9254 81.554 38.1156 82.0057 39.2234C82.3625 40.1024 82.9675 40.8576 83.7463 41.396C84.4614 41.8768 85.3035 42.1313 86.1641 42.1268C87.0197 42.1334 87.859 41.893 88.5819 41.4339C89.3606 40.9145 89.9692 40.1761 90.3317 39.3113C90.8019 38.1792 91.025 36.9592 90.9861 35.7333C91.0163 34.544 90.7931 33.3619 90.3317 32.2659C89.9582 31.3759 89.3456 30.6075 88.5622 30.0463C87.8467 29.5438 86.9937 29.2759 86.1203 29.2791C85.2345 29.2679 84.3688 29.5432 83.6511 30.0645C82.8867 30.6403 82.3017 31.4229 81.9647 32.3205C81.549 33.4078 81.3483 34.566 81.3739 35.7302L81.3694 35.7287Z" fill="#5D55FF"/>
<path d="M102.544 25.8915V18.5186H99.9961V45.7513H102.544V28.1066H106.58V25.896L102.544 25.8915Z" fill="#FF8662"/>
<path d="M112.224 25.8906H109.677V45.7504H112.224V25.8906Z" fill="#FF8662"/>
<path d="M136.038 30.0166L134.019 31.2765C133.204 30.1532 132.126 29.2478 130.881 28.6398C129.635 28.0317 128.26 27.7398 126.876 27.7894C125.77 27.7552 124.669 27.9441 123.637 28.3448C122.606 28.7456 121.665 29.3503 120.871 30.1227C120.101 30.849 119.491 31.7283 119.079 32.7047C118.667 33.6811 118.463 34.733 118.48 35.7931C118.477 37.2285 118.857 38.6388 119.58 39.8775C120.292 41.1315 121.338 42.161 122.603 42.8491C124.489 43.8477 126.664 44.1518 128.75 43.7086C130.837 43.2656 132.702 42.103 134.024 40.4233L136.042 41.756C135.093 43.1883 133.777 44.3374 132.231 45.0824C130.53 45.8935 128.665 46.2979 126.782 46.2635C125.351 46.3092 123.925 46.0682 122.588 45.5544C121.251 45.0404 120.03 44.264 118.996 43.2706C118.001 42.3423 117.212 41.2149 116.679 39.9612C116.146 38.7077 115.882 37.3559 115.902 35.9932C115.892 34.1088 116.392 32.2568 117.348 30.6352C118.293 29.0052 119.669 27.6692 121.324 26.7751C123.062 25.8374 125.009 25.36 126.982 25.3879C128.271 25.3856 129.552 25.5903 130.776 25.9943C131.889 26.3421 132.937 26.8723 133.877 27.5635C134.748 28.2337 135.482 29.0668 136.038 30.0166Z" fill="#FF8662"/>
<path d="M142.058 25.8906H139.511V45.7504H142.058V25.8906Z" fill="#FF8662"/>
<path d="M166.379 25.8908V45.7521H163.868V42.3393C162.895 43.5655 161.669 44.5675 160.274 45.2775C158.378 46.1872 156.244 46.4765 154.176 46.1046C152.105 45.7328 150.205 44.7185 148.741 43.205C147.772 42.229 147.01 41.0674 146.499 39.7894C145.988 38.5115 145.739 37.1435 145.767 35.7668C145.745 34.4035 146 33.0501 146.516 31.7887C147.032 30.5272 147.798 29.3841 148.768 28.4288C149.698 27.4487 150.819 26.672 152.062 26.1475C153.305 25.6227 154.643 25.3615 155.99 25.3798C157.524 25.3582 159.038 25.7154 160.401 26.4199C161.784 27.1736 162.972 28.2429 163.866 29.5416V25.8908H166.379ZM156.199 27.8451C154.815 27.8344 153.452 28.2001 152.256 28.9032C151.062 29.6062 150.079 30.6205 149.412 31.8385C148.713 33.0595 148.347 34.443 148.348 35.8507C148.35 37.2583 148.72 38.641 149.421 39.8604C150.096 41.0957 151.091 42.1255 152.3 42.8411C153.474 43.5419 154.816 43.9086 156.181 43.9024C157.571 43.9022 158.939 43.5362 160.143 42.8411C161.352 42.1757 162.349 41.1841 163.023 39.9786C163.706 38.7341 164.054 37.3325 164.031 35.9124C164.06 34.8484 163.874 33.7897 163.484 32.7996C163.094 31.8096 162.509 30.9087 161.764 30.1511C161.047 29.4017 160.181 28.8098 159.224 28.4129C158.266 28.0159 157.237 27.8226 156.2 27.8451H156.199Z" fill="#FF8662"/>
<path d="M170.381 25.8909H172.929V29.4508C173.823 28.1987 174.978 27.1555 176.312 26.3927C177.551 25.7173 178.941 25.3687 180.351 25.3799C181.747 25.3558 183.119 25.7502 184.291 26.5125C185.422 27.2496 186.306 28.3115 186.828 29.5599C187.471 31.4804 187.75 33.5053 187.647 35.5289V45.7507H185.099V36.2764C185.155 34.7436 185.061 33.2089 184.816 31.6946C184.612 30.5371 184.013 29.4873 183.118 28.7276C182.172 28.0298 181.016 27.6787 179.843 27.733C178.323 27.7252 176.853 28.2703 175.703 29.2673C174.514 30.2384 173.666 31.567 173.285 33.0576C172.98 34.8417 172.859 36.6524 172.922 38.4611V45.7385H170.375L170.381 25.8909Z" fill="#FF8662"/>
<path d="M202.71 28.0633L201.073 29.7613C200.053 28.5983 198.619 27.8839 197.079 27.7722C196.292 27.7578 195.529 28.0527 194.955 28.5939C194.68 28.8309 194.457 29.1249 194.305 29.4555C194.152 29.7862 194.072 30.146 194.071 30.5103C194.084 31.1927 194.344 31.8474 194.799 32.3539C195.684 33.2349 196.723 33.9466 197.862 34.4538C199.337 35.1183 200.655 36.0888 201.727 37.3011C202.389 38.2056 202.741 39.3008 202.731 40.4228C202.744 41.1946 202.599 41.961 202.305 42.6739C202.01 43.3869 201.572 44.0311 201.017 44.5663C200.455 45.125 199.786 45.5635 199.05 45.8552C198.315 46.1468 197.528 46.2855 196.736 46.2629C195.604 46.2655 194.485 46.01 193.465 45.5154C192.457 45.0401 191.573 44.3333 190.887 43.452L192.487 41.6326C192.975 42.2809 193.599 42.8145 194.314 43.1959C195.03 43.5775 195.819 43.7978 196.627 43.8416C197.592 43.8639 198.527 43.5107 199.236 42.8561C199.573 42.5713 199.843 42.2162 200.029 41.8159C200.215 41.4157 200.312 40.9796 200.312 40.538C200.318 39.8225 200.065 39.1291 199.601 38.5852C198.66 37.7013 197.575 36.9836 196.393 36.4626C194.989 35.8351 193.743 34.8995 192.747 33.7245C192.103 32.8268 191.765 31.7452 191.78 30.6392C191.762 29.9393 191.889 29.2433 192.153 28.5957C192.419 27.9482 192.816 27.3634 193.32 26.8792C193.836 26.382 194.447 25.9936 195.115 25.7366C195.783 25.4796 196.496 25.3593 197.211 25.3828C199.323 25.5172 201.298 26.4801 202.71 28.0633Z" fill="#FF8662"/>
<path d="M142.058 18.5166H139.511V23.5683H142.058V18.5166Z" fill="#FF8662"/>
<path d="M112.224 18.5166H109.677V23.5683H112.224V18.5166Z" fill="#FF8662"/>
</svg>
