<svg width="20" height="14" viewBox="0 0 20 14" fill="none" xmlns="http://www.w3.org/2000/svg">
<path d="M15.004 3.20863e-07H7C5.162 3.20863e-07 3.414 0.737 2.076 2.076C0.737 3.415 0 5.163 0 7C0 8.838 0.737 10.586 2.076 11.924C3.414 13.263 5.162 14 7 14H15V12H7C5.697 12 4.45 11.471 3.49 10.51C2.529 9.55 2 8.303 2 7C2 5.698 2.529 4.451 3.49 3.49C4.45 2.529 5.697 2 7 2H15V1L15.001 2H15.004C15.794 2 16.543 2.314 17.113 2.886C17.684 3.457 17.999 4.208 18 5.002C17.9997 5.39471 17.9214 5.78345 17.7696 6.14566C17.6179 6.50787 17.3957 6.83633 17.116 7.112C16.8392 7.39216 16.5098 7.61484 16.1466 7.76723C15.7835 7.91963 15.3938 7.99873 15 8H7C6.86963 7.99842 6.74086 7.9711 6.62108 7.91962C6.50129 7.86814 6.39286 7.7935 6.302 7.7C6.20794 7.60904 6.13283 7.50035 6.08099 7.3802C6.02916 7.26006 6.00163 7.13084 6 7C6 6.748 6.11 6.493 6.301 6.302C6.39171 6.20788 6.50021 6.13272 6.6202 6.08088C6.7402 6.02904 6.86929 6.00154 7 6H15V4H7C6.21 4 5.459 4.315 4.886 4.889C4.314 5.461 4 6.211 4 7C4 7.789 4.314 8.54 4.888 9.114C5.16401 9.39394 5.49277 9.61638 5.85529 9.76846C6.21781 9.92054 6.60688 9.99924 7 10H15.001C15.6572 9.99953 16.3068 9.86913 16.9123 9.61631C17.5178 9.36349 18.0673 8.99327 18.529 8.527C18.9948 8.06516 19.3644 7.51563 19.6167 6.91015C19.8689 6.30467 19.9988 5.65522 19.9987 4.99929C19.9986 4.34337 19.8686 3.69395 19.6161 3.08854C19.3637 2.48313 18.9939 1.93371 18.528 1.472C18.0674 1.0055 17.5186 0.63515 16.9137 0.382458C16.3087 0.129766 15.6596 -0.000235724 15.004 3.20863e-07Z" fill="#F4F4F4" fill-opacity="0.8"/>
</svg>
